<?xml version="1.0" encoding="utf-8"?>
<!-- Generator: Adobe Illustrator 24.0.2, SVG Export Plug-In . SVG Version: 6.00 Build 0)  -->
<svg version="1.1" id="圖層_1" xmlns="http://www.w3.org/2000/svg" xmlns:xlink="http://www.w3.org/1999/xlink" x="0px" y="0px"
	 viewBox="0 0 40 37.6" style="enable-background:new 0 0 40 37.6;" xml:space="preserve">
<style type="text/css">
	.st0{fill:#F0AD25;}
</style>
<g>
	<path class="st0" d="M34.3,28.1c-1.9-2.8-4.5-5-6.3-7.9c-3.9-6.3-7.8-6-7.8-6s-3.9-0.3-7.8,6C10.6,23.1,8,25.3,6,28.1
		c-1.7,2.4-2,5.7,0.1,8.1c0.5,0.6,1.3,0.8,2.1,1c2.4,0.7,4.9,0.2,7.4,0c0.3,0,4.6-0.2,4.6-0.1c0-0.1,4.3,0.1,4.6,0.1
		c2.5,0.3,5,0.7,7.4,0c0.7-0.2,1.5-0.4,2.1-1C36.4,33.8,36,30.5,34.3,28.1z"/>
	<circle class="st0" cx="14.4" cy="5.4" r="5.3"/>
	<circle class="st0" cx="26.1" cy="5.4" r="5.3"/>
	<circle class="st0" cx="34.7" cy="13.2" r="5.3"/>
	<circle class="st0" cx="5.3" cy="13.2" r="5.3"/>
</g>
</svg>
