<?xml version="1.0" encoding="utf-8"?>
<!-- Generator: Adobe Illustrator 24.0.2, SVG Export Plug-In . SVG Version: 6.00 Build 0)  -->
<svg version="1.1" id="圖層_1" xmlns="http://www.w3.org/2000/svg" xmlns:xlink="http://www.w3.org/1999/xlink" x="0px" y="0px"
	 viewBox="0 0 122 22.6" style="enable-background:new 0 0 122 22.6;" xml:space="preserve">
<style type="text/css">
	.st0{fill:none;}
	.st1{fill:#F8B52E;}
</style>
<g id="Group_537">
	<rect id="Rectangle_1191" y="-15.6" class="st0" width="121" height="55"/>
	<g>
		<path class="st1" d="M8.6,22.3c-0.4,0.1-0.8,0.2-1.2,0.2c-0.6,0.1-1.1,0.1-1.7,0.1c-0.5,0-1,0-1.5-0.1c-0.4-0.1-0.8-0.2-1.1-0.5
			c-0.3-0.2-0.5-0.5-0.6-0.9c-0.2-0.5-0.2-1-0.2-1.5V2.7c0-0.4,0.1-0.9,0.4-1.2C3.1,1.2,3.5,1,3.9,0.8c0.9-0.3,1.8-0.5,2.8-0.6
			C7.7,0.1,8.8,0,9.8,0c3.3,0,5.9,0.7,7.6,2.1c1.7,1.4,2.7,3.5,2.6,5.8c0,1.1-0.2,2.2-0.6,3.2c-0.4,0.9-0.9,1.8-1.6,2.5
			c-0.8,0.7-1.7,1.3-2.8,1.6c-1.3,0.4-2.6,0.6-3.9,0.6H8.6V22.3z M10.5,10.7c0.8,0.1,1.7-0.2,2.3-0.7c0.6-0.6,0.9-1.3,0.8-2.1
			c0.1-0.8-0.3-1.6-0.8-2.1C12.1,5.2,11.2,5,10.3,5H9.4c-0.3,0-0.5,0-0.8,0.1v5.6H10.5z"/>
		<path class="st1" d="M23.3,4c-0.1-1.7,1.1-3.2,2.9-3.3c0.2,0,0.3,0,0.5,0h11.9c0.2,0.3,0.3,0.7,0.5,1c0.1,0.4,0.2,0.9,0.2,1.4
			C39.2,3.7,39,4.4,38.5,5c-0.4,0.4-1,0.6-1.6,0.6h-7.6v3.3h8.1c0.2,0.3,0.3,0.7,0.5,1c0.1,0.4,0.2,0.9,0.2,1.4
			c0.1,0.7-0.1,1.4-0.6,1.9c-0.4,0.4-1,0.6-1.5,0.6h-6.6v3.8h9.2c0.2,0.3,0.3,0.6,0.5,1c0.1,0.4,0.2,0.9,0.2,1.4
			c0.1,0.7-0.1,1.4-0.6,2c-0.4,0.4-1,0.6-1.6,0.6H26.6c-1.7,0.1-3.2-1.1-3.3-2.9c0-0.2,0-0.3,0-0.5V4z"/>
		<path class="st1" d="M42,5.6c-0.2-0.3-0.4-0.7-0.5-1.1c-0.2-0.5-0.2-1-0.2-1.4c-0.1-0.7,0.2-1.4,0.6-2c0.4-0.4,1-0.6,1.6-0.6h15.7
			c0.2,0.3,0.4,0.7,0.5,1.1C59.9,2.1,60,2.5,60,3c0.1,0.7-0.2,1.4-0.6,2c-0.4,0.4-1,0.6-1.6,0.6h-4v16.6c-0.4,0.1-0.8,0.2-1.3,0.2
			c-0.6,0.1-1.1,0.1-1.7,0.1c-0.5,0-1,0-1.5-0.1c-0.4-0.1-0.7-0.2-1.1-0.5c-0.3-0.2-0.5-0.5-0.7-0.9c-0.2-0.5-0.2-1-0.2-1.5v-14
			L42,5.6z"/>
		<path class="st1" d="M69.3,22.3c-0.4,0.1-0.8,0.2-1.2,0.2c-0.6,0.1-1.1,0.1-1.7,0.1c-0.5,0-1,0-1.4-0.1c-0.4-0.1-0.8-0.2-1.1-0.5
			c-0.3-0.2-0.5-0.5-0.7-0.9c-0.2-0.5-0.2-1-0.2-1.5V2.7c0-0.4,0.1-0.9,0.4-1.2c0.3-0.3,0.7-0.5,1.1-0.7c0.9-0.3,1.8-0.5,2.8-0.6
			c1-0.1,2.1-0.2,3.2-0.2c3.3,0,5.9,0.7,7.6,2.1c1.7,1.4,2.7,3.5,2.6,5.8c0,1.1-0.2,2.2-0.6,3.2c-0.4,0.9-0.9,1.8-1.7,2.5
			c-0.8,0.7-1.8,1.3-2.8,1.6c-1.2,0.4-2.6,0.6-3.9,0.6h-2.6V22.3z M71.2,10.7c0.8,0.1,1.7-0.2,2.3-0.7c0.6-0.6,0.9-1.3,0.8-2.1
			c0.1-0.8-0.3-1.6-0.8-2.1C72.8,5.2,71.9,5,71,5h-0.9c-0.3,0-0.5,0-0.8,0.1v5.6H71.2z"/>
		<path class="st1" d="M83.9,4c-0.1-1.7,1.1-3.2,2.9-3.3c0.2,0,0.3,0,0.5,0h11.9c0.2,0.3,0.3,0.7,0.4,1c0.1,0.4,0.2,0.9,0.2,1.4
			c0.1,0.7-0.1,1.4-0.6,1.9c-0.4,0.4-1,0.6-1.6,0.6H90v3.3h8.1c0.2,0.3,0.3,0.6,0.4,1c0.1,0.4,0.2,0.9,0.2,1.4
			c0.1,0.7-0.1,1.4-0.6,1.9c-0.4,0.4-1,0.6-1.6,0.6H90v3.8h9.3c0.2,0.3,0.3,0.6,0.4,1c0.1,0.4,0.2,0.9,0.2,1.4
			c0.1,0.7-0.1,1.4-0.6,2c-0.4,0.4-1,0.6-1.6,0.6H87.3c-1.7,0.1-3.2-1.1-3.3-2.9c0-0.2,0-0.3,0-0.5L83.9,4z"/>
		<path class="st1" d="M102.6,5.6c-0.2-0.3-0.4-0.7-0.5-1.1c-0.1-0.5-0.2-1-0.2-1.4c-0.1-0.7,0.2-1.4,0.6-2c0.4-0.4,1-0.6,1.6-0.6
			H120c0.2,0.3,0.4,0.7,0.5,1.1c0.2,0.5,0.2,1,0.2,1.4c0.1,0.7-0.2,1.4-0.6,2c-0.4,0.4-1,0.6-1.6,0.6h-4v16.6
			c-0.4,0.1-0.8,0.2-1.2,0.2c-0.6,0.1-1.1,0.1-1.7,0.1c-0.5,0-1,0-1.5-0.1c-0.4-0.1-0.7-0.2-1.1-0.5c-0.3-0.2-0.5-0.5-0.7-0.9
			c-0.2-0.5-0.2-1-0.2-1.5v-14L102.6,5.6z"/>
	</g>
</g>
</svg>
